<svg width="16" height="15" viewBox="0 0 16 15" fill="none" xmlns="http://www.w3.org/2000/svg">
<path d="M8.83701 0.596669C8.78842 0.552413 8.73159 0.518161 8.66976 0.495869C8.60794 0.473577 8.54232 0.463682 8.47667 0.466746C8.41102 0.46981 8.34662 0.485774 8.28714 0.513729C8.22766 0.541684 8.17426 0.581081 8.13001 0.629669C8.08575 0.678258 8.0515 0.735089 8.02921 0.796915C8.00692 0.858742 7.99702 0.924353 8.00008 0.990004C8.00315 1.05565 8.01911 1.12006 8.04707 1.17954C8.07502 1.23902 8.11442 1.29241 8.16301 1.33667L14.33 6.96667L0.500007 6.96667C0.367399 6.96667 0.240222 7.01935 0.146454 7.11311C0.0526854 7.20688 7.29822e-06 7.33406 7.28662e-06 7.46667C7.27503e-06 7.59928 0.0526854 7.72645 0.146453 7.82022C0.240222 7.91399 0.367399 7.96667 0.500007 7.96667L14.328 7.96667L8.16301 13.5967C8.07012 13.6873 8.01609 13.8105 8.01235 13.9402C8.0086 14.0699 8.05543 14.196 8.14294 14.2918C8.23045 14.3876 8.35178 14.4456 8.4813 14.4536C8.61081 14.4616 8.73837 14.419 8.83701 14.3347L15.753 8.02067C15.8399 7.94166 15.907 7.84324 15.9487 7.73342C15.9904 7.62359 16.0056 7.50547 15.993 7.38867C15.9744 7.20586 15.8889 7.03636 15.753 6.91267L8.83701 0.59767L8.83701 0.596669Z" fill="black"/>
</svg>
