<svg width="181" height="181" viewBox="0 0 181 181" fill="none" xmlns="http://www.w3.org/2000/svg">
<rect width="180" height="180" transform="translate(0.605957 0.466797)" fill="white"/>
<path fill-rule="evenodd" clip-rule="evenodd" d="M57.304 19.7041C27.8029 30.1586 6.67279 58.3075 6.67279 91.3916C6.67279 133.384 40.7147 167.426 82.7076 167.426C98.8563 167.426 113.829 162.392 126.142 153.807L57.304 19.7041Z" fill="#FFECF3"/>
<path fill-rule="evenodd" clip-rule="evenodd" d="M122.857 69.9337C133.268 74.8964 146.108 73.0676 154.728 64.4473C165.669 53.5058 165.669 35.7661 154.728 24.8246C150.52 20.6169 145.307 18.0273 139.862 17.0559L122.857 69.9337Z" fill="#FFECF3"/>
<path fill-rule="evenodd" clip-rule="evenodd" d="M134.457 48.4058L90.3862 31.6665L46.6599 48.4041L46.6589 48.4055C46.6572 48.4081 46.6557 48.4113 46.6547 48.4144C46.6538 48.4173 46.6537 48.4203 46.6537 48.4203C46.7099 55.5589 46.6271 62.1078 46.5413 68.1454C46.5349 68.5967 46.5285 69.045 46.5221 69.4905C46.443 75.0096 46.3702 80.0895 46.4107 84.8114C46.4983 95.0252 47.1172 103.474 49.3118 110.908C53.6651 125.655 64.2985 136.667 90.2913 149.266C90.2941 149.267 90.299 149.267 90.3052 149.267C90.3114 149.267 90.3164 149.267 90.3194 149.266C90.3224 149.266 90.3211 149.265 90.316 149.268C117.268 136.979 127.961 126.263 132.182 111.607C134.312 104.212 134.815 95.7439 134.813 85.4185C134.812 81.3369 134.731 76.9431 134.645 72.216C134.513 65.0705 134.368 57.1635 134.463 48.4226C134.463 48.4226 134.463 48.4195 134.462 48.4165C134.461 48.4132 134.46 48.4099 134.458 48.4072L134.457 48.4058ZM90.7412 30.7317C90.5117 30.6445 90.258 30.6448 90.0287 30.7326L46.2965 47.4725C45.9064 47.6218 45.6504 48.0104 45.6537 48.4281C45.7141 56.0885 45.614 63.0703 45.5221 69.479C44.9303 110.768 44.6795 128.27 89.8591 150.168C90.1258 150.297 90.4611 150.301 90.7309 150.178C136.694 129.22 136.385 112.441 135.644 72.1564C135.513 65.0344 135.368 57.1778 135.463 48.4335C135.468 48.0137 135.211 47.6224 134.818 47.4733L90.7412 30.7317Z" fill="black"/>
<path fill-rule="evenodd" clip-rule="evenodd" d="M107.26 65.1037C107.843 64.526 108.782 64.5238 109.367 65.0988L119.7 75.2468C120.302 75.8382 120.298 76.8098 119.691 77.3961L84.5677 111.308C83.9791 111.876 83.0436 111.868 82.4651 111.29L61.7864 90.6109C61.2085 90.0329 61.1996 89.0985 61.7666 88.5098L71.3465 78.5614C71.9059 77.9805 72.8245 77.9459 73.4261 78.483L83.7751 87.7234C83.9723 87.8994 84.2724 87.8916 84.4602 87.7055L107.26 65.1037ZM108.667 65.8122C108.471 65.6206 108.158 65.6213 107.964 65.8139L85.1642 88.4157C84.601 88.974 83.7006 88.9975 83.1091 88.4693L72.76 79.2289C72.5595 79.0499 72.2533 79.0614 72.0669 79.2551L62.4869 89.2034C62.298 89.3997 62.3009 89.7111 62.4936 89.9038L83.1722 110.582C83.3651 110.775 83.6769 110.778 83.8731 110.589L118.996 76.6767C119.198 76.4812 119.2 76.1574 118.999 75.9602L108.667 65.8122Z" fill="black"/>
</svg>
