<svg width="181" height="181" viewBox="0 0 181 181" fill="none" xmlns="http://www.w3.org/2000/svg">
<rect width="180" height="180" transform="translate(0.811035 0.466797)" fill="white"/>
<path d="M123.333 19.6089C131.266 80.1587 130.103 119.309 119.848 137.072C116.19 143.408 111.319 148.962 105.515 153.416C99.7104 157.87 93.0855 161.137 86.0183 163.031C78.9512 164.924 71.5802 165.408 64.3264 164.453C57.0725 163.498 50.0778 161.123 43.7416 157.465C37.4053 153.807 31.8517 148.936 27.3977 143.132C22.9438 137.327 19.6767 130.702 17.783 123.635C15.8894 116.568 15.4063 109.197 16.3613 101.943C17.3163 94.6893 19.6907 87.6946 23.3489 81.3584C33.6042 63.5956 66.9286 43.0134 123.333 19.6089Z" fill="#EBFFFF"/>
<path d="M142.886 150.863C142.886 161.458 134.297 170.047 123.702 170.047C113.107 170.047 104.517 161.458 104.517 150.863C104.517 140.267 113.107 131.678 123.702 131.678C134.297 131.678 142.886 140.267 142.886 150.863Z" fill="#EBFFFF"/>
<path d="M165.738 62.4401C165.738 69.7217 159.835 75.6246 152.553 75.6246C145.271 75.6246 139.369 69.7217 139.369 62.4401C139.369 55.1585 145.271 49.2556 152.553 49.2556C159.835 49.2556 165.738 55.1585 165.738 62.4401Z" fill="#EBFFFF"/>
<path d="M41.9913 19.2376C41.9913 23.8496 38.2525 27.5884 33.6404 27.5884C29.0284 27.5884 25.2896 23.8496 25.2896 19.2376C25.2896 14.6255 29.0284 10.8867 33.6404 10.8867C38.2525 10.8867 41.9913 14.6255 41.9913 19.2376Z" fill="#EBFFFF"/>
<path fill-rule="evenodd" clip-rule="evenodd" d="M90.8137 90.4671C81.5321 90.4597 72.263 88.8542 60.4104 85.6893L60.6684 84.7231C72.4784 87.8767 81.654 89.4598 90.8145 89.4671C99.9747 89.4743 109.147 87.9059 120.951 84.7235L121.212 85.689C109.363 88.8836 100.096 90.4744 90.8137 90.4671Z" fill="black"/>
<path fill-rule="evenodd" clip-rule="evenodd" d="M90.8137 103.414C81.5321 103.407 72.263 101.801 60.4104 98.6366L60.6684 97.6704C72.4784 100.824 81.654 102.407 90.8145 102.414C99.9747 102.422 109.147 100.853 120.951 97.6707L121.212 98.6362C109.363 101.831 100.096 103.422 90.8137 103.414Z" fill="black"/>
<path d="M91.211 129.929C87.711 129.929 84.011 129.129 79.311 127.629C71.911 125.329 53.511 116.429 50.011 113.229C46.811 110.329 46.411 108.229 46.311 104.529V103.229L35.711 96.4294C35.311 96.1294 35.011 95.9294 34.711 95.7294C32.511 94.2294 31.111 93.3294 30.911 88.4294V67.7294C30.911 65.6294 31.911 63.7294 33.611 62.7294C35.411 61.6294 37.611 61.7294 39.811 62.9294L46.811 67.4294C47.811 67.1294 48.711 66.8294 49.711 66.5294C58.411 63.7294 67.411 60.8294 76.111 55.7294C87.211 49.4294 93.811 49.4294 105.311 55.7294L105.111 56.1294L105.411 55.7294C114.111 60.8294 123.111 63.7294 131.811 66.5294C132.811 66.8294 133.711 67.1294 134.711 67.4294L141.711 62.9294C144.011 61.7294 146.211 61.6294 148.011 62.7294C149.711 63.7294 150.711 65.6294 150.711 67.7294V88.4294C150.611 93.3294 149.111 94.3294 146.911 95.7294C146.611 95.9294 146.311 96.1294 145.911 96.4294L135.311 103.229V104.529C135.211 108.229 134.811 110.329 131.611 113.229C128.111 116.429 109.711 125.329 102.311 127.629C98.111 129.229 94.711 129.929 91.211 129.929ZM47.211 104.629C47.311 108.229 47.711 109.929 50.611 112.529C54.011 115.729 72.211 124.429 79.511 126.729C88.811 129.729 93.711 129.729 102.011 126.729C109.311 124.429 127.511 115.629 130.911 112.529C133.811 109.829 134.211 108.129 134.311 104.529V103.029L134.211 68.4294C133.311 68.1294 132.411 67.8294 131.411 67.5294C122.711 64.7294 113.611 61.8294 104.811 56.6294C93.611 50.4294 87.511 50.4294 76.611 56.6294C67.811 61.8294 58.711 64.7294 50.011 67.5294C49.111 67.8294 48.211 68.1294 47.211 68.4294V104.629ZM135.211 68.3294L135.311 102.129L145.311 95.6294C145.611 95.4294 146.011 95.1294 146.311 94.9294C148.411 93.5294 149.511 92.7294 149.611 88.4294V67.7294C149.611 66.0294 148.711 64.4294 147.411 63.6294C146.011 62.7294 144.111 62.8294 142.211 63.8294L135.211 68.3294ZM36.411 63.0294C35.611 63.0294 34.811 63.2294 34.211 63.6294C32.811 64.4294 31.911 66.0294 31.911 67.7294V88.4294C32.011 92.7294 33.111 93.5294 35.211 94.9294C35.511 95.1294 35.811 95.3294 36.211 95.6294L46.211 102.129L46.311 68.3294L39.411 63.8294C38.411 63.3294 37.411 63.0294 36.411 63.0294Z" fill="black"/>
</svg>
