<svg width="180" height="181" viewBox="0 0 180 181" fill="none" xmlns="http://www.w3.org/2000/svg">
<rect width="180" height="180" transform="translate(0 0.466797)" fill="white"/>
<path d="M118.743 61.1904C105.895 61.1904 94.5757 67.6147 88.1515 77.7099C81.7273 67.6147 70.4084 61.1904 57.5599 61.1904C37.3695 61.1904 20.8501 77.7099 20.8501 97.9003C20.8501 134.304 88.1515 171.32 88.1515 171.32C88.1515 171.32 155.453 134.61 155.453 97.9003C155.453 77.7099 138.933 61.1904 118.743 61.1904Z" fill="#EBFFF5"/>
<path d="M23.4265 66.2793C21.3478 66.2793 19.5164 67.3187 18.4771 68.952C17.4377 67.3187 15.6064 66.2793 13.5276 66.2793C10.2609 66.2793 7.5882 68.952 7.5882 72.2187C7.5882 78.1086 18.4771 84.0974 18.4771 84.0974C18.4771 84.0974 29.3659 78.1581 29.3659 72.2187C29.3659 68.952 26.6932 66.2793 23.4265 66.2793Z" fill="#EBFFF5"/>
<path d="M38.6515 23.1782C35.5509 23.1782 32.8194 24.7285 31.2691 27.1647C29.7187 24.7285 26.9872 23.1782 23.8866 23.1782C19.0142 23.1782 15.0277 27.1647 15.0277 32.0372C15.0277 40.8223 31.2691 49.755 31.2691 49.755C31.2691 49.755 47.5104 40.8961 47.5104 32.0372C47.5104 27.1647 43.5239 23.1782 38.6515 23.1782Z" fill="#EBFFF5"/>
<path d="M165.374 49.7549C162.911 49.7549 160.741 50.9865 159.51 52.9218C158.278 50.9865 156.108 49.7549 153.645 49.7549C149.774 49.7549 146.607 52.9218 146.607 56.7925C146.607 63.7714 159.51 70.8677 159.51 70.8677C159.51 70.8677 172.412 63.8301 172.412 56.7925C172.412 52.9218 169.245 49.7549 165.374 49.7549Z" fill="#EBFFF5"/>
<path d="M142.461 9.61377C140.403 9.61377 138.59 10.6429 137.561 12.26C136.532 10.6429 134.719 9.61377 132.66 9.61377C129.426 9.61377 126.78 12.26 126.78 15.4942C126.78 21.3257 137.561 27.2552 137.561 27.2552C137.561 27.2552 148.342 21.3747 148.342 15.4942C148.342 12.26 145.695 9.61377 142.461 9.61377Z" fill="#EBFFF5"/>
<path d="M157.692 150.894C155.634 150.894 153.821 151.923 152.792 153.54C151.763 151.923 149.95 150.894 147.892 150.894C144.657 150.894 142.011 153.54 142.011 156.775C142.011 162.606 152.792 168.535 152.792 168.535C152.792 168.535 163.573 162.655 163.573 156.775C163.573 153.54 160.927 150.894 157.692 150.894Z" fill="#EBFFF5"/>
<path d="M92.0371 38.1494C90.1615 38.1494 88.5092 39.0872 87.5715 40.5609C86.6337 39.0872 84.9814 38.1494 83.1058 38.1494C80.1584 38.1494 77.7469 40.5609 77.7469 43.5082C77.7469 48.8224 87.5715 54.2259 87.5715 54.2259C87.5715 54.2259 97.396 48.8671 97.396 43.5082C97.396 40.5609 94.9845 38.1494 92.0371 38.1494Z" fill="#EBFFF5"/>
<path fill-rule="evenodd" clip-rule="evenodd" d="M44.6031 34.5088C44.339 34.4596 44.0659 34.6465 44.0181 34.9301C40.1147 58.0832 40.3509 74.3456 42.2819 85.3204C44.2176 96.3214 47.8406 101.932 50.6231 103.906C51.102 104.246 51.4028 104.843 51.3015 105.467C49.8451 114.431 49.2646 117.653 48.3985 122.46C47.9715 124.83 47.4751 127.585 46.7702 131.603L46.7697 131.606C46.4533 133.355 46.0886 134.859 45.2739 135.843C44.4039 136.893 43.1114 137.264 41.221 137L41.2075 136.998L34.3608 135.658C34.0717 135.602 33.7966 135.806 33.7673 136.099L33.2809 140.963C33.2549 141.224 33.4337 141.46 33.6912 141.505L33.6941 141.506L60.5017 146.423L60.5062 146.424C60.7629 146.473 61.0144 146.317 61.0832 146.064L62.3692 141.348C62.4467 141.064 62.2629 140.775 61.9727 140.724L55.0998 139.526L55.0866 139.523C53.2268 139.093 52.1524 138.284 51.7158 136.992C51.3068 135.782 51.5044 134.248 51.8347 132.501L51.8352 132.498C52.6144 128.494 53.1365 125.743 53.5856 123.378C54.4966 118.579 55.1071 115.362 56.9542 106.47C57.0827 105.851 57.5773 105.401 58.146 105.255C61.4506 104.407 66.841 100.464 72.5841 90.8839C78.3136 81.3263 84.3521 66.2246 88.99 43.2075C89.0468 42.9255 88.8587 42.6532 88.5944 42.6048L44.6043 34.5091L44.6031 34.5088ZM44.7859 33.5257C43.9538 33.3708 43.1695 33.9479 43.032 34.7639C39.1159 57.9919 39.3406 74.3745 41.2971 85.4937C43.2489 96.5865 46.94 102.519 50.0445 104.722C50.2495 104.867 50.3475 105.102 50.3144 105.306C48.8594 114.263 48.2807 117.475 47.4154 122.277C46.9884 124.647 46.4916 127.404 45.7854 131.429C45.4626 133.214 45.1263 134.453 44.5038 135.205C43.9376 135.889 43.0592 136.244 41.3726 136.011L34.5528 134.677C33.6855 134.507 32.8602 135.12 32.7722 136L32.2859 140.864C32.2079 141.643 32.743 142.351 33.5138 142.49L33.5167 142.49L60.3169 147.406L60.3196 147.406C61.0889 147.553 61.8419 147.083 62.048 146.327L63.334 141.611C63.5665 140.759 63.0151 139.891 62.1445 139.739L55.2985 138.545C53.6403 138.16 52.9473 137.513 52.6631 136.672C52.3507 135.748 52.4801 134.47 52.817 132.688C53.5976 128.676 54.1201 125.924 54.5692 123.558C55.4792 118.764 56.0879 115.558 57.9333 106.674C57.9753 106.471 58.1511 106.287 58.3946 106.224C62.0815 105.278 67.6507 101.058 73.4418 91.398C79.2467 81.7147 85.3174 66.4967 89.9703 43.405C90.1338 42.5936 89.6076 41.7739 88.7748 41.6212" fill="black"/>
<path fill-rule="evenodd" clip-rule="evenodd" d="M135.397 34.5088C135.661 34.4596 135.934 34.6465 135.982 34.9301C139.885 58.0832 139.649 74.3456 137.718 85.3204C135.782 96.3214 132.159 101.932 129.377 103.906C128.898 104.246 128.597 104.843 128.699 105.467C130.155 114.431 130.735 117.653 131.602 122.46C132.028 124.83 132.525 127.585 133.23 131.603L133.23 131.606C133.547 133.355 133.911 134.859 134.726 135.843C135.596 136.893 136.889 137.264 138.779 137L138.792 136.998L145.639 135.658C145.928 135.602 146.203 135.806 146.233 136.099L146.719 140.963C146.745 141.224 146.566 141.46 146.309 141.505L146.306 141.506L119.498 146.423L119.494 146.424C119.237 146.473 118.986 146.317 118.917 146.064L117.631 141.348C117.553 141.064 117.737 140.775 118.027 140.724L124.9 139.526L124.913 139.523C126.773 139.093 127.848 138.284 128.284 136.992C128.693 135.782 128.496 134.248 128.165 132.501L128.165 132.498C127.386 128.494 126.863 125.743 126.414 123.378C125.503 118.579 124.893 115.362 123.046 106.47C122.917 105.851 122.423 105.401 121.854 105.255C118.549 104.407 113.159 100.464 107.416 90.8839C101.686 81.3263 95.6479 66.2246 91.01 43.2075C90.9532 42.9255 91.1413 42.6532 91.4056 42.6048L135.396 34.5091L135.397 34.5088ZM135.214 33.5257C136.046 33.3708 136.83 33.9479 136.968 34.7639C140.884 57.9919 140.659 74.3745 138.703 85.4937C136.751 96.5865 133.06 102.519 129.956 104.722C129.75 104.867 129.652 105.102 129.686 105.306C131.141 114.263 131.719 117.475 132.585 122.277C133.012 124.647 133.508 127.404 134.215 131.429C134.537 133.214 134.874 134.453 135.496 135.205C136.062 135.889 136.941 136.244 138.627 136.011L145.447 134.677C146.315 134.507 147.14 135.12 147.228 136L147.714 140.864C147.792 141.643 147.257 142.351 146.486 142.49L146.483 142.49L119.683 147.406L119.68 147.406C118.911 147.553 118.158 147.083 117.952 146.327L116.666 141.611C116.434 140.759 116.985 139.891 117.856 139.739L124.701 138.545C126.36 138.16 127.053 137.513 127.337 136.672C127.649 135.748 127.52 134.47 127.183 132.688C126.402 128.676 125.88 125.924 125.431 123.558C124.521 118.764 123.912 115.558 122.067 106.674C122.025 106.471 121.849 106.287 121.605 106.224C117.918 105.278 112.349 101.058 106.558 91.398C100.753 81.7147 94.6826 66.4967 90.0297 43.405C89.8662 42.5936 90.3924 41.7739 91.2252 41.6212" fill="black"/>
</svg>
