<svg width="180" height="181" viewBox="0 0 180 181" fill="none" xmlns="http://www.w3.org/2000/svg">
<rect width="180" height="180" transform="translate(0 0.466797)" fill="white"/>
<path d="M81.2611 37.3581C84.9506 23.5885 99.104 15.4171 112.874 19.1066L131.445 24.0828C145.214 27.7723 153.386 41.9257 149.696 55.6953L124.743 148.821C121.054 162.59 106.901 170.762 93.131 167.072L74.5596 162.096C60.7901 158.407 52.6186 144.253 56.3082 130.484L81.2611 37.3581Z" fill="#F9EAFF"/>
<path d="M160.262 71.7576C174.031 75.4472 182.203 89.6006 178.513 103.37L173.537 121.941C169.847 135.711 155.694 143.882 141.924 140.193L45.7428 114.421C31.9733 110.732 23.8018 96.5782 27.4914 82.8087L32.4676 64.2373C36.1571 50.4678 50.3105 42.2963 64.0801 45.9859L160.262 71.7576Z" fill="#F9EAFF"/>
<path d="M9.79574 18.8822C9.79574 15.6195 12.4406 12.9746 15.7033 12.9746L20.1037 12.9746C23.3664 12.9746 26.0113 15.6195 26.0113 18.8822V40.948C26.0113 44.2107 23.3664 46.8556 20.1037 46.8556H15.7033C12.4406 46.8556 9.79574 44.2107 9.79574 40.948L9.79574 18.8822Z" fill="#F9EAFF"/>
<path d="M29.2985 21.8073C32.5611 21.8073 35.206 24.4522 35.206 27.7149V32.1153C35.206 35.3779 32.5611 38.0229 29.2985 38.0229L6.50852 38.0229C3.24587 38.0229 0.600967 35.3779 0.600967 32.1153L0.600968 27.7149C0.600968 24.4522 3.24587 21.8073 6.50853 21.8073L29.2985 21.8073Z" fill="#F9EAFF"/>
<path d="M27.2862 131.164L27.4564 122.656C27.4673 122.112 27.9118 121.676 28.4562 121.676L35.627 121.676C36.0354 121.676 36.4027 121.428 36.5549 121.049L64.7504 50.8646C65.0612 50.091 66.1265 50.015 66.544 50.7367L89.4418 90.3227C89.8286 90.9915 90.7954 90.9877 91.1769 90.3159L113.872 50.3564C114.287 49.6259 115.364 49.7016 115.672 50.483L143.447 120.833C143.598 121.215 143.967 121.466 144.377 121.466H151.734C152.287 121.466 152.734 121.914 152.734 122.466V131.395C152.734 131.947 152.287 132.395 151.734 132.395H109.6C109.047 132.395 108.6 131.947 108.6 131.395V122.887C108.6 122.334 109.047 121.887 109.6 121.887H114.682C115.391 121.887 115.875 121.169 115.609 120.512L109.322 104.969C109.019 104.218 107.994 104.121 107.555 104.802L90.734 130.884C90.3405 131.494 89.4484 131.495 89.054 130.885L72.4638 105.246C72.0205 104.56 70.9874 104.666 70.6921 105.427L64.9938 120.104C64.7393 120.76 65.2229 121.466 65.926 121.466L70.8208 121.466C71.3731 121.466 71.8208 121.914 71.8208 122.466V131.184C71.8208 131.737 71.3731 132.184 70.8208 132.184L28.286 132.184C27.7259 132.184 27.275 131.724 27.2862 131.164Z" stroke="black"/>
</svg>
