<svg width="60" height="18" viewBox="0 0 60 18" fill="none" xmlns="http://www.w3.org/2000/svg">
<path d="M8.05295 17.1318V13.9109H7.4978V16.1407L5.87843 13.9109H5.31012V17.1318H5.86527V14.8283L7.51536 17.1318H8.05295ZM13.4157 17.1318L12.1716 13.9109H11.4782L10.2362 17.1318H10.866L11.0986 16.509H12.5512L12.7838 17.1318H13.4157ZM12.3954 16.0113H11.2566L11.8249 14.4756L12.3954 16.0113ZM16.1476 17.1318V13.9109H15.5924V17.1318H16.1476ZM20.5712 17.1318V16.634H19.1757V13.9109H18.6205V17.1318H20.5712ZM26.1534 17.1318C25.9252 16.9086 25.7256 16.701 25.5347 16.5001C25.7212 16.2434 25.8638 15.9577 25.9713 15.6966L25.5698 15.5091C25.5127 15.6966 25.4074 15.9532 25.256 16.1854C25.1507 16.0693 25.0475 15.9443 24.9422 15.8126C24.8522 15.7077 24.7381 15.5671 24.6284 15.4131C25.0234 15.2189 25.4162 15.0069 25.4162 14.5203C25.4162 14.1007 25.0651 13.8641 24.6394 13.8641C24.1457 13.8641 23.7793 14.1922 23.7793 14.6207C23.7793 14.8439 23.8692 15.0894 24.0031 15.3305C23.6366 15.518 23.3141 15.7747 23.3141 16.2724C23.3141 16.8795 23.7705 17.1898 24.33 17.1898C24.6899 17.1898 24.9795 17.0536 25.2165 16.8505C25.3218 16.9621 25.4206 17.0581 25.4974 17.1318H26.1534ZM24.3958 16.7836C24.1018 16.7836 23.8407 16.5805 23.8407 16.2278C23.8407 15.9577 23.9921 15.7903 24.2027 15.6497C24.3103 15.8082 24.4353 15.9689 24.5538 16.1073C24.6328 16.2144 24.7798 16.384 24.9422 16.5559C24.7798 16.6921 24.5999 16.7836 24.3958 16.7836ZM24.2773 14.6363C24.2773 14.3998 24.4485 14.2346 24.657 14.2346C24.8369 14.2346 24.9751 14.3506 24.9751 14.5493C24.9751 14.8194 24.7338 14.9734 24.4353 15.1185C24.3388 14.9488 24.2773 14.7814 24.2773 14.6363ZM30.6188 17.1318C31.2156 17.1318 31.5382 16.759 31.5382 16.2568C31.5382 15.8662 31.2683 15.5247 30.926 15.4711C31.22 15.4086 31.4767 15.1319 31.4767 14.7323C31.4767 14.2792 31.1586 13.9109 30.5749 13.9109H29.0192V17.1318H30.6188ZM30.4674 15.239H29.5743V14.4087H30.4674C30.746 14.4087 30.9084 14.5872 30.9084 14.8238C30.9084 15.0694 30.746 15.239 30.4674 15.239ZM30.4893 16.634H29.5743V15.7367H30.4893C30.8031 15.7367 30.9699 15.9443 30.9699 16.1854C30.9699 16.4644 30.7899 16.634 30.4893 16.634ZM36.1044 17.1318V16.634H34.4917V15.7367H36.0715V15.239H34.4917V14.4087H36.1044V13.9109H33.9365V17.1318H36.1044ZM41.3619 17.1318L40.1199 13.9109H39.4266L38.1824 17.1318H38.8144L39.0469 16.509H40.4996L40.7321 17.1318H41.3619ZM40.3416 16.0113H39.2027L39.7733 14.4756L40.3416 16.0113ZM44.7696 17.1898C45.6912 17.1898 46.141 16.6541 46.141 15.8573V13.9109H45.5771V15.8416C45.5771 16.355 45.2962 16.6876 44.7696 16.6876C44.243 16.6876 43.9621 16.355 43.9621 15.8416V13.9109H43.3982V15.8573C43.3982 16.6541 43.8546 17.1898 44.7696 17.1898ZM49.9612 17.1318V14.4087H50.9201V13.9109H48.4472V14.4087H49.4061V17.1318H49.9612ZM54.6833 17.1318V15.7948L55.9077 13.9109H55.2713L54.4046 15.2881L53.5357 13.9109H52.8993L54.1281 15.7948V17.1318H54.6833Z" fill="white"/>
<path d="M9.54725 10.4156L5.8148 0.744141H3.73245L0 10.4156H1.89365L2.59362 8.54512H6.95363L7.6536 10.4156H9.54725ZM6.48406 7.05188H3.06319L4.77253 2.44049L6.48406 7.05188ZM22.658 10.4156V0.744141H20.3057L17.7253 7.38446L15.1317 0.744141H12.7816V10.4156H14.447V2.94716L17.3698 10.4156H18.0829L20.9903 2.94716V10.4156H22.658ZM35.4528 10.4156L31.7181 0.744141H29.6379L25.9033 10.4156H27.7992L28.4969 8.54512H32.8591L33.5569 10.4156H35.4528ZM32.3896 7.05188H28.9687L30.678 2.44049L32.3896 7.05188ZM44.4295 10.4156V8.92233H40.2384V0.744141H38.5708V10.4156H44.4295ZM49.7703 10.4156V6.2238H54.5165V4.73056H49.7703V2.23737H54.6175V0.744141H48.1027V10.4156H49.7703ZM60 10.4156V0.744141H58.3324V10.4156H60Z" fill="white"/>
</svg>
