<svg width="200" height="176" viewBox="0 0 200 176" fill="none" xmlns="http://www.w3.org/2000/svg">
<path d="M149.763 175.314C140.58 175.314 131.667 174.18 123.025 171.911C114.382 169.642 107.359 166.617 101.958 162.836L112.491 139.176C117.569 142.525 123.457 145.226 130.155 147.279C136.853 149.331 143.443 150.358 149.925 150.358C162.242 150.358 168.4 147.279 168.4 141.121C168.4 137.88 166.617 135.503 163.052 133.99C159.595 132.37 153.977 130.695 146.198 128.967C137.663 127.13 130.533 125.185 124.807 123.133C119.081 120.972 114.166 117.569 110.06 112.923C105.955 108.278 103.902 102.012 103.902 94.125C103.902 87.2108 105.793 80.9987 109.574 75.4889C113.355 69.871 118.973 65.4416 126.428 62.2005C133.99 58.9594 143.227 57.3389 154.139 57.3389C161.593 57.3389 168.94 58.2032 176.178 59.9317C183.417 61.5523 189.791 63.9831 195.3 67.2241L185.415 91.046C174.612 85.2121 164.132 82.2951 153.977 82.2951C147.603 82.2951 142.957 83.2674 140.04 85.2121C137.123 87.0487 135.665 89.4795 135.665 92.5045C135.665 95.5295 137.393 97.7983 140.85 99.3108C144.308 100.823 149.871 102.39 157.542 104.01C166.185 105.847 173.315 107.846 178.933 110.006C184.659 112.059 189.575 115.408 193.68 120.054C197.893 124.591 200 130.803 200 138.69C200 145.496 198.109 151.654 194.328 157.164C190.547 162.674 184.875 167.103 177.312 170.452C169.75 173.693 160.567 175.314 149.763 175.314Z" fill="#EBFFF5"/>
<path d="M128.671 0.620117L80.0545 114.058H48.454L0 0.620117H34.6795L65.4697 74.5166L96.9081 0.620117H128.671Z" fill="#EBFFF5"/>
</svg>
