<svg width="55" height="41" viewBox="0 0 55 41" fill="none" xmlns="http://www.w3.org/2000/svg">
<path d="M19.9398 0.772417C20.2291 0.509918 20.6094 0.370477 20.9999 0.38367C21.3904 0.396864 21.7604 0.561654 22.0314 0.843088C22.3024 1.12452 22.4531 1.50046 22.4516 1.89116C22.45 2.28187 22.2963 2.6566 22.0231 2.93588L5.44656 18.8814L53.0127 18.8814C53.4112 18.8814 53.7933 19.0397 54.0751 19.3214C54.3568 19.6032 54.5151 19.9853 54.5151 20.3838C54.5151 20.7823 54.3568 21.1644 54.0751 21.4462C53.7933 21.7279 53.4112 21.8862 53.0127 21.8862L5.44856 21.8862L22.0231 37.8297C22.2963 38.109 22.45 38.4837 22.4516 38.8745C22.4531 39.2652 22.3024 39.6411 22.0314 39.9225C21.7604 40.204 21.3904 40.3688 20.9999 40.3819C20.6094 40.3951 20.2291 40.2557 19.9398 39.9932L1.05353 21.8261C0.859342 21.6392 0.704868 21.4151 0.599353 21.1671C0.493839 20.9191 0.439453 20.6523 0.439453 20.3828C0.439453 20.1133 0.493839 19.8466 0.599353 19.5986C0.704868 19.3506 0.859342 19.1264 1.05353 18.9395L19.9398 0.770414V0.772417Z" fill="black"/>
</svg>
