<svg width="55" height="41" viewBox="0 0 55 41" fill="none" xmlns="http://www.w3.org/2000/svg">
<path d="M35.3923 40.2276C35.1029 40.4901 34.7226 40.6295 34.3321 40.6163C33.9417 40.6031 33.5717 40.4383 33.3007 40.1569C33.0296 39.8755 32.8789 39.4995 32.8805 39.1088C32.882 38.7181 33.0357 38.3434 33.3089 38.0641L49.8855 22.1186L2.31935 22.1186C1.92088 22.1186 1.53874 21.9603 1.25698 21.6785C0.975225 21.3968 0.816934 21.0146 0.816934 20.6162C0.816934 20.2177 0.975225 19.8356 1.25698 19.5538C1.53874 19.2721 1.92088 19.1138 2.31935 19.1138L49.8835 19.1138L33.3089 3.17026C33.0357 2.89098 32.882 2.51625 32.8805 2.12554C32.8789 1.73484 33.0297 1.3589 33.3007 1.07747C33.5717 0.796034 33.9417 0.631247 34.3321 0.618052C34.7226 0.604857 35.1029 0.744299 35.3923 1.0068L54.2785 19.1739C54.4727 19.3608 54.6272 19.5849 54.7327 19.8329C54.8382 20.0809 54.8926 20.3477 54.8926 20.6172C54.8926 20.8867 54.8382 21.1534 54.7327 21.4014C54.6272 21.6494 54.4727 21.8736 54.2785 22.0605L35.3923 40.2296L35.3923 40.2276Z" fill="black"/>
</svg>
