<svg width="21" height="16" viewBox="0 0 21 16" fill="none" xmlns="http://www.w3.org/2000/svg">
<path fill-rule="evenodd" clip-rule="evenodd" d="M0.5 1.74951C0.5 1.41799 0.65051 1.10005 0.918419 0.865629C1.18633 0.631208 1.54969 0.499512 1.92857 0.499512H19.0714C19.4503 0.499512 19.8137 0.631208 20.0816 0.865629C20.3495 1.10005 20.5 1.41799 20.5 1.74951C20.5 2.08103 20.3495 2.39897 20.0816 2.6334C19.8137 2.86782 19.4503 2.99951 19.0714 2.99951H1.92857C1.54969 2.99951 1.18633 2.86782 0.918419 2.6334C0.65051 2.39897 0.5 2.08103 0.5 1.74951Z" fill="#00D2D2"/>
<path fill-rule="evenodd" clip-rule="evenodd" d="M0.5 7.99951C0.5 7.66799 0.65051 7.35005 0.918419 7.11563C1.18633 6.88121 1.54969 6.74951 1.92857 6.74951H19.0714C19.4503 6.74951 19.8137 6.88121 20.0816 7.11563C20.3495 7.35005 20.5 7.66799 20.5 7.99951C20.5 8.33103 20.3495 8.64897 20.0816 8.8834C19.8137 9.11782 19.4503 9.24951 19.0714 9.24951H1.92857C1.54969 9.24951 1.18633 9.11782 0.918419 8.8834C0.65051 8.64897 0.5 8.33103 0.5 7.99951Z" fill="#00D2D2"/>
<path fill-rule="evenodd" clip-rule="evenodd" d="M0.5 14.2495C0.5 13.918 0.65051 13.6 0.918419 13.3656C1.18633 13.1312 1.54969 12.9995 1.92857 12.9995H19.0714C19.4503 12.9995 19.8137 13.1312 20.0816 13.3656C20.3495 13.6 20.5 13.918 20.5 14.2495C20.5 14.581 20.3495 14.899 20.0816 15.1334C19.8137 15.3678 19.4503 15.4995 19.0714 15.4995H1.92857C1.54969 15.4995 1.18633 15.3678 0.918419 15.1334C0.65051 14.899 0.5 14.581 0.5 14.2495Z" fill="#00D2D2"/>
</svg>
