<svg width="15" height="21" viewBox="0 0 15 21" fill="none" xmlns="http://www.w3.org/2000/svg">
<path d="M7.62207 0.845703C3.75207 0.845703 0.62207 3.9757 0.62207 7.8457C0.62207 13.0957 7.62207 20.8457 7.62207 20.8457C7.62207 20.8457 14.6221 13.0957 14.6221 7.8457C14.6221 3.9757 11.4921 0.845703 7.62207 0.845703ZM7.62207 10.3457C6.95903 10.3457 6.32314 10.0823 5.8543 9.61347C5.38546 9.14463 5.12207 8.50874 5.12207 7.8457C5.12207 7.18266 5.38546 6.54678 5.8543 6.07794C6.32314 5.6091 6.95903 5.3457 7.62207 5.3457C8.28511 5.3457 8.921 5.6091 9.38984 6.07794C9.85868 6.54678 10.1221 7.18266 10.1221 7.8457C10.1221 8.50874 9.85868 9.14463 9.38984 9.61347C8.921 10.0823 8.28511 10.3457 7.62207 10.3457Z" fill="black"/>
</svg>
