<svg width="25" height="24" viewBox="0 0 25 24" fill="none" xmlns="http://www.w3.org/2000/svg">
<path d="M12.1465 2C8.27648 2 5.14648 5.13 5.14648 9C5.14648 14.25 12.1465 22 12.1465 22C12.1465 22 19.1465 14.25 19.1465 9C19.1465 5.13 16.0165 2 12.1465 2ZM12.1465 11.5C11.4834 11.5 10.8476 11.2366 10.3787 10.7678C9.90988 10.2989 9.64648 9.66304 9.64648 9C9.64648 8.33696 9.90988 7.70107 10.3787 7.23223C10.8476 6.76339 11.4834 6.5 12.1465 6.5C12.8095 6.5 13.4454 6.76339 13.9143 7.23223C14.3831 7.70107 14.6465 8.33696 14.6465 9C14.6465 9.66304 14.3831 10.2989 13.9143 10.7678C13.4454 11.2366 12.8095 11.5 12.1465 11.5Z" fill="black"/>
</svg>
