<svg width="147" height="42" viewBox="0 0 147 42" fill="none" xmlns="http://www.w3.org/2000/svg">
<path d="M20.1648 41.347V33.3074H18.8176V38.8733L14.8877 33.3074H13.5086V41.347H14.8558V35.5973L18.8602 41.347H20.1648ZM33.1791 41.347L30.1598 33.3074H28.4771L25.4632 41.347H26.9915L27.5559 39.7926H31.0811L31.6455 41.347H33.1791ZM30.703 38.5501H27.9393L29.3185 34.717L30.703 38.5501ZM39.8087 41.347V33.3074H38.4615V41.347H39.8087ZM50.5439 41.347V40.1046H47.1572V33.3074H45.81V41.347H50.5439ZM64.0907 41.347C63.5369 40.7899 63.0524 40.2717 62.5891 39.7703C63.0417 39.1296 63.3878 38.4164 63.6488 37.7646L62.6743 37.2966C62.5358 37.7646 62.2802 38.4053 61.9128 38.9847C61.6572 38.695 61.4069 38.383 61.1513 38.0543C60.933 37.7924 60.6561 37.4414 60.3899 37.057C61.3484 36.5723 62.3015 36.043 62.3015 34.8284C62.3015 33.781 61.4495 33.1904 60.4165 33.1904C59.2184 33.1904 58.3291 34.0094 58.3291 35.0791C58.3291 35.6363 58.5474 36.2491 58.8722 36.8508C57.983 37.3188 57.2002 37.9596 57.2002 39.202C57.2002 40.7174 58.3078 41.4918 59.6657 41.4918C60.539 41.4918 61.2419 41.152 61.817 40.645C62.0726 40.9236 62.3122 41.1631 62.4986 41.347H64.0907ZM59.8254 40.4778C59.1119 40.4778 58.4782 39.9708 58.4782 39.0906C58.4782 38.4164 58.8456 37.9986 59.3568 37.6476C59.6177 38.0431 59.9213 38.4443 60.2088 38.7897C60.4005 39.0571 60.7573 39.4806 61.1513 39.9096C60.7573 40.2494 60.3206 40.4778 59.8254 40.4778ZM59.5379 35.1181C59.5379 34.5275 59.9532 34.1153 60.4591 34.1153C60.8957 34.1153 61.2312 34.405 61.2312 34.9008C61.2312 35.575 60.6455 35.9594 59.9213 36.3215C59.687 35.8981 59.5379 35.4803 59.5379 35.1181ZM74.9271 41.347C76.3755 41.347 77.1583 40.4166 77.1583 39.163C77.1583 38.188 76.5033 37.3356 75.6726 37.2018C76.3862 37.0458 77.0092 36.355 77.0092 35.3577C77.0092 34.2267 76.2371 33.3074 74.8206 33.3074H71.0452V41.347H74.9271ZM74.5597 36.6224H72.3924V34.5498H74.5597C75.236 34.5498 75.63 34.9955 75.63 35.5861C75.63 36.199 75.236 36.6224 74.5597 36.6224ZM74.6129 40.1046H72.3924V37.8648H74.6129C75.3744 37.8648 75.7791 38.383 75.7791 38.9847C75.7791 39.6811 75.3425 40.1046 74.6129 40.1046ZM88.2396 41.347V40.1046H84.3257V37.8648H88.1597V36.6224H84.3257V34.5498H88.2396V33.3074H82.9785V41.347H88.2396ZM100.998 41.347L97.9844 33.3074H96.3017L93.2824 41.347H94.816L95.3804 39.7926H98.9056L99.47 41.347H100.998ZM98.5222 38.5501H95.7585L97.143 34.717L98.5222 38.5501ZM109.268 41.4918C111.505 41.4918 112.596 40.1547 112.596 38.1657V33.3074H111.228V38.1267C111.228 39.4081 110.546 40.2383 109.268 40.2383C107.99 40.2383 107.308 39.4081 107.308 38.1267V33.3074H105.94V38.1657C105.94 40.1547 107.048 41.4918 109.268 41.4918ZM121.867 41.347V34.5498H124.194V33.3074H118.193V34.5498H120.52V41.347H121.867ZM133.326 41.347V38.0097L136.298 33.3074H134.753L132.65 36.745L130.541 33.3074H128.997L131.979 38.0097V41.347H133.326Z" fill="#2B2A29"/>
<path d="M23.7911 24.5825L14.7333 0.441406H9.6799L0.62207 24.5825H5.21755L6.91622 19.9136H17.497L19.1957 24.5825H23.7911ZM16.3574 16.1863H8.05577L12.2039 4.67571L16.3574 16.1863ZM55.608 24.5825V0.441406H49.8996L43.6374 17.0165L37.3433 0.441406H31.6402V24.5825H35.6819V5.94043L42.7748 24.5825H44.5054L51.561 5.94043V24.5825H55.608ZM86.6581 24.5825L77.5949 0.441406H72.5469L63.4837 24.5825H68.0845L69.7778 19.9136H80.3639L82.0573 24.5825H86.6581ZM79.2244 16.1863H70.9227L75.0709 4.67571L79.2244 16.1863ZM108.443 24.5825V20.8552H98.2719V0.441406H94.2249V24.5825H108.443ZM121.404 24.5825V14.1193H132.922V10.392H121.404V4.16871H133.167V0.441406H117.357V24.5825H121.404ZM146.229 24.5825V0.441406H142.182V24.5825H146.229Z" fill="#2B2A29"/>
</svg>
